<?xml version="1.0" encoding="UTF-8"?>
<svg id="Layer_1" xmlns="http://www.w3.org/2000/svg" version="1.1" viewBox="0 0 440.9 465.3">
  <!-- Generator: Adobe Illustrator 29.0.1, SVG Export Plug-In . SVG Version: 2.1.0 Build 192)  -->
  <defs>
    <style>
      .st0 {
        fill: #fff;
      }
    </style>
  </defs>
  <path class="st0" d="M169.4,414.2c-1.9,0-3.4-4.6-4.4-7.6C136.2,323.3-29.2,81.8,4.5,53.9c19.9-16.3,112.2,38.7,157.7,121.5,61.8,112.2,17.2,238.6,7.2,238.8h0Z"/>
  <path class="st0" d="M251.9,410c-19.1-9.1,23.8-205.7,86.8-209.9,39.4-2.6,77.5,70.8,91.2,114.3,7.1,22.5,18.2,71.2,4.3,78.1-10,5-21.9.9-94.6-98.9-2.5,20-24.3,47.7-53.1,84.4-10.9,13.8-27.7,35.2-34.7,31.8h.1v.2Z"/>
</svg>